<mxfile host="app.diagrams.net" agent="Mozilla/5.0 (Macintosh; Intel Mac OS X 10_15_7) AppleWebKit/537.36 (KHTML, like Gecko) Chrome/128.0.0.0 Safari/537.36" version="24.7.8">
  <diagram name="페이지-1" id="IK191SdpP6nFnNJA5NYr">
    <mxGraphModel dx="2074" dy="1155" grid="1" gridSize="10" guides="1" tooltips="1" connect="1" arrows="1" fold="1" page="1" pageScale="1" pageWidth="827" pageHeight="1169" math="0" shadow="0">
      <root>
        <mxCell id="0" />
        <mxCell id="1" parent="0" />
        <mxCell id="MOfZ0UF6O1ds08dy238V-4" value="Game Engine" style="verticalAlign=top;align=left;spacingTop=8;spacingLeft=2;spacingRight=12;shape=cube;size=10;direction=south;fontStyle=4;html=1;whiteSpace=wrap;rotation=0;labelBackgroundColor=none;fillColor=none;" vertex="1" parent="1">
          <mxGeometry x="120" y="120" width="620" height="470" as="geometry" />
        </mxCell>
        <mxCell id="MOfZ0UF6O1ds08dy238V-25" value="MiniPubSub" style="shape=folder;fontStyle=1;spacingTop=10;tabWidth=40;tabHeight=14;tabPosition=left;html=1;whiteSpace=wrap;fillColor=#dae8fc;strokeColor=#6c8ebf;verticalAlign=top;align=left;" vertex="1" parent="1">
          <mxGeometry x="310" y="150" width="390" height="410" as="geometry" />
        </mxCell>
        <mxCell id="MOfZ0UF6O1ds08dy238V-5" value="Native" style="verticalAlign=top;align=left;spacingTop=8;spacingLeft=2;spacingRight=12;shape=cube;size=10;direction=south;fontStyle=4;html=1;whiteSpace=wrap;rotation=0;labelBackgroundColor=none;fillColor=none;" vertex="1" parent="1">
          <mxGeometry x="120" y="665" width="620" height="470" as="geometry" />
        </mxCell>
        <mxCell id="MOfZ0UF6O1ds08dy238V-14" value="Game Bridge" style="shape=folder;fontStyle=1;spacingTop=10;tabWidth=40;tabHeight=14;tabPosition=left;html=1;whiteSpace=wrap;fillColor=#d5e8d4;strokeColor=#82b366;" vertex="1" parent="1">
          <mxGeometry x="592" y="724" width="70" height="50" as="geometry" />
        </mxCell>
        <mxCell id="MOfZ0UF6O1ds08dy238V-15" value="Native Bridge" style="shape=folder;fontStyle=1;spacingTop=10;tabWidth=40;tabHeight=14;tabPosition=left;html=1;whiteSpace=wrap;fillColor=#f8cecc;strokeColor=#b85450;verticalAlign=bottom;align=left;" vertex="1" parent="1">
          <mxGeometry x="422" y="440" width="250" height="99" as="geometry" />
        </mxCell>
        <mxCell id="MOfZ0UF6O1ds08dy238V-40" style="edgeStyle=orthogonalEdgeStyle;rounded=0;orthogonalLoop=1;jettySize=auto;html=1;" edge="1" parent="1" source="MOfZ0UF6O1ds08dy238V-18" target="MOfZ0UF6O1ds08dy238V-35">
          <mxGeometry relative="1" as="geometry" />
        </mxCell>
        <mxCell id="MOfZ0UF6O1ds08dy238V-86" style="edgeStyle=orthogonalEdgeStyle;rounded=0;orthogonalLoop=1;jettySize=auto;html=1;exitX=0.25;exitY=0;exitDx=0;exitDy=0;" edge="1" parent="1">
          <mxGeometry relative="1" as="geometry">
            <mxPoint x="506" y="290" as="targetPoint" />
            <mxPoint x="505.5" y="340" as="sourcePoint" />
          </mxGeometry>
        </mxCell>
        <mxCell id="MOfZ0UF6O1ds08dy238V-94" style="edgeStyle=orthogonalEdgeStyle;rounded=0;orthogonalLoop=1;jettySize=auto;html=1;entryX=1;entryY=0.5;entryDx=0;entryDy=0;" edge="1" parent="1" source="MOfZ0UF6O1ds08dy238V-18" target="MOfZ0UF6O1ds08dy238V-93">
          <mxGeometry relative="1" as="geometry" />
        </mxCell>
        <mxCell id="MOfZ0UF6O1ds08dy238V-18" value="MessageMediator" style="html=1;whiteSpace=wrap;labelBackgroundColor=none;fillColor=#d5e8d4;strokeColor=#82b366;" vertex="1" parent="1">
          <mxGeometry x="477" y="340" width="110" height="40" as="geometry" />
        </mxCell>
        <mxCell id="MOfZ0UF6O1ds08dy238V-22" value="" style="group" vertex="1" connectable="0" parent="1">
          <mxGeometry x="467" y="199" width="130" height="90" as="geometry" />
        </mxCell>
        <mxCell id="MOfZ0UF6O1ds08dy238V-19" value="Messenger" style="html=1;whiteSpace=wrap;labelBackgroundColor=none;fillColor=#d5e8d4;strokeColor=#82b366;verticalAlign=top;horizontal=1;align=center;" vertex="1" parent="MOfZ0UF6O1ds08dy238V-22">
          <mxGeometry width="130" height="90" as="geometry" />
        </mxCell>
        <mxCell id="MOfZ0UF6O1ds08dy238V-7" value="Publsiher" style="html=1;whiteSpace=wrap;labelBackgroundColor=none;fillColor=#60a917;strokeColor=#2D7600;fontColor=#ffffff;" vertex="1" parent="MOfZ0UF6O1ds08dy238V-22">
          <mxGeometry x="26" y="25" width="88" height="40" as="geometry" />
        </mxCell>
        <mxCell id="MOfZ0UF6O1ds08dy238V-100" style="edgeStyle=orthogonalEdgeStyle;rounded=0;orthogonalLoop=1;jettySize=auto;html=1;entryX=0;entryY=0.5;entryDx=0;entryDy=0;" edge="1" parent="1" source="MOfZ0UF6O1ds08dy238V-27" target="MOfZ0UF6O1ds08dy238V-19">
          <mxGeometry relative="1" as="geometry" />
        </mxCell>
        <mxCell id="MOfZ0UF6O1ds08dy238V-27" value="Game side object" style="html=1;whiteSpace=wrap;fillColor=#1ba1e2;fontColor=#ffffff;strokeColor=#006EAF;" vertex="1" parent="1">
          <mxGeometry x="170" y="219" width="110" height="50" as="geometry" />
        </mxCell>
        <mxCell id="MOfZ0UF6O1ds08dy238V-1" value="Message" style="html=1;whiteSpace=wrap;labelBackgroundColor=none;fillColor=#e1d5e7;strokeColor=#9673a6;" vertex="1" parent="1">
          <mxGeometry x="343" y="229" width="60" height="30" as="geometry" />
        </mxCell>
        <mxCell id="MOfZ0UF6O1ds08dy238V-52" style="edgeStyle=orthogonalEdgeStyle;rounded=0;orthogonalLoop=1;jettySize=auto;html=1;" edge="1" parent="1" source="MOfZ0UF6O1ds08dy238V-35" target="MOfZ0UF6O1ds08dy238V-46">
          <mxGeometry relative="1" as="geometry" />
        </mxCell>
        <mxCell id="MOfZ0UF6O1ds08dy238V-35" value="Watcher" style="html=1;whiteSpace=wrap;labelBackgroundColor=none;fillColor=#d5e8d4;strokeColor=#82b366;verticalAlign=middle;horizontal=1;align=center;" vertex="1" parent="1">
          <mxGeometry x="432" y="469.5" width="70" height="40" as="geometry" />
        </mxCell>
        <mxCell id="MOfZ0UF6O1ds08dy238V-51" style="edgeStyle=orthogonalEdgeStyle;rounded=0;orthogonalLoop=1;jettySize=auto;html=1;entryX=0.5;entryY=1;entryDx=0;entryDy=0;" edge="1" parent="1" source="MOfZ0UF6O1ds08dy238V-9" target="MOfZ0UF6O1ds08dy238V-46">
          <mxGeometry relative="1" as="geometry" />
        </mxCell>
        <mxCell id="MOfZ0UF6O1ds08dy238V-9" value="json" style="shape=card;whiteSpace=wrap;html=1;fillColor=#ffe6cc;strokeColor=#d79b00;size=20;" vertex="1" parent="1">
          <mxGeometry x="615" y="604" width="60" height="41" as="geometry" />
        </mxCell>
        <mxCell id="MOfZ0UF6O1ds08dy238V-49" style="edgeStyle=orthogonalEdgeStyle;rounded=0;orthogonalLoop=1;jettySize=auto;html=1;" edge="1" parent="1" source="MOfZ0UF6O1ds08dy238V-46" target="MOfZ0UF6O1ds08dy238V-9">
          <mxGeometry relative="1" as="geometry" />
        </mxCell>
        <mxCell id="MOfZ0UF6O1ds08dy238V-46" value="Message" style="html=1;whiteSpace=wrap;labelBackgroundColor=none;fillColor=#e1d5e7;strokeColor=#9673a6;" vertex="1" parent="1">
          <mxGeometry x="550" y="474.5" width="60" height="30" as="geometry" />
        </mxCell>
        <mxCell id="MOfZ0UF6O1ds08dy238V-53" value="MiniPubSub" style="shape=folder;fontStyle=1;spacingTop=10;tabWidth=40;tabHeight=14;tabPosition=left;html=1;whiteSpace=wrap;fillColor=#dae8fc;strokeColor=#6c8ebf;verticalAlign=top;align=left;" vertex="1" parent="1">
          <mxGeometry x="370" y="690" width="330" height="410" as="geometry" />
        </mxCell>
        <mxCell id="MOfZ0UF6O1ds08dy238V-54" value="Native Bridge" style="shape=folder;fontStyle=1;spacingTop=10;tabWidth=40;tabHeight=14;tabPosition=left;html=1;whiteSpace=wrap;fillColor=#f8cecc;strokeColor=#b85450;verticalAlign=bottom;align=left;" vertex="1" parent="1">
          <mxGeometry x="427" y="725" width="250" height="99" as="geometry" />
        </mxCell>
        <mxCell id="MOfZ0UF6O1ds08dy238V-55" style="edgeStyle=orthogonalEdgeStyle;rounded=0;orthogonalLoop=1;jettySize=auto;html=1;exitX=0.25;exitY=0;exitDx=0;exitDy=0;" edge="1" parent="1" source="MOfZ0UF6O1ds08dy238V-56" target="MOfZ0UF6O1ds08dy238V-63">
          <mxGeometry relative="1" as="geometry" />
        </mxCell>
        <mxCell id="MOfZ0UF6O1ds08dy238V-87" style="edgeStyle=orthogonalEdgeStyle;rounded=0;orthogonalLoop=1;jettySize=auto;html=1;exitX=0.75;exitY=1;exitDx=0;exitDy=0;entryX=0.75;entryY=0;entryDx=0;entryDy=0;" edge="1" parent="1" source="MOfZ0UF6O1ds08dy238V-56" target="MOfZ0UF6O1ds08dy238V-58">
          <mxGeometry relative="1" as="geometry" />
        </mxCell>
        <mxCell id="MOfZ0UF6O1ds08dy238V-56" value="MessageMediator" style="html=1;whiteSpace=wrap;labelBackgroundColor=none;fillColor=#d5e8d4;strokeColor=#82b366;" vertex="1" parent="1">
          <mxGeometry x="482" y="880" width="110" height="40" as="geometry" />
        </mxCell>
        <mxCell id="MOfZ0UF6O1ds08dy238V-57" value="" style="group;verticalAlign=bottom;align=center;" vertex="1" connectable="0" parent="1">
          <mxGeometry x="467" y="990" width="130" height="90" as="geometry" />
        </mxCell>
        <mxCell id="MOfZ0UF6O1ds08dy238V-58" value="Messenger" style="html=1;whiteSpace=wrap;labelBackgroundColor=none;fillColor=#d5e8d4;strokeColor=#82b366;verticalAlign=bottom;horizontal=1;align=center;" vertex="1" parent="MOfZ0UF6O1ds08dy238V-57">
          <mxGeometry width="130" height="90" as="geometry" />
        </mxCell>
        <mxCell id="MOfZ0UF6O1ds08dy238V-59" value="Publsiher" style="html=1;whiteSpace=wrap;labelBackgroundColor=none;fillColor=#60a917;strokeColor=#2D7600;fontColor=#ffffff;" vertex="1" parent="MOfZ0UF6O1ds08dy238V-57">
          <mxGeometry x="21" y="23" width="88" height="40" as="geometry" />
        </mxCell>
        <mxCell id="MOfZ0UF6O1ds08dy238V-75" style="edgeStyle=orthogonalEdgeStyle;rounded=0;orthogonalLoop=1;jettySize=auto;html=1;entryX=1;entryY=0.25;entryDx=0;entryDy=0;" edge="1" parent="1" source="MOfZ0UF6O1ds08dy238V-61" target="MOfZ0UF6O1ds08dy238V-74">
          <mxGeometry relative="1" as="geometry" />
        </mxCell>
        <mxCell id="MOfZ0UF6O1ds08dy238V-61" value="Message" style="html=1;whiteSpace=wrap;labelBackgroundColor=none;fillColor=#e1d5e7;strokeColor=#9673a6;" vertex="1" parent="1">
          <mxGeometry x="350" y="990" width="60" height="30" as="geometry" />
        </mxCell>
        <mxCell id="MOfZ0UF6O1ds08dy238V-62" style="edgeStyle=orthogonalEdgeStyle;rounded=0;orthogonalLoop=1;jettySize=auto;html=1;" edge="1" parent="1" source="MOfZ0UF6O1ds08dy238V-63" target="MOfZ0UF6O1ds08dy238V-65">
          <mxGeometry relative="1" as="geometry" />
        </mxCell>
        <mxCell id="MOfZ0UF6O1ds08dy238V-63" value="Watcher" style="html=1;whiteSpace=wrap;labelBackgroundColor=none;fillColor=#d5e8d4;strokeColor=#82b366;verticalAlign=middle;horizontal=1;align=center;" vertex="1" parent="1">
          <mxGeometry x="437" y="754.5" width="70" height="40" as="geometry" />
        </mxCell>
        <mxCell id="MOfZ0UF6O1ds08dy238V-70" style="edgeStyle=orthogonalEdgeStyle;rounded=0;orthogonalLoop=1;jettySize=auto;html=1;exitX=0.5;exitY=1;exitDx=0;exitDy=0;entryX=0.75;entryY=0;entryDx=0;entryDy=0;" edge="1" parent="1" source="MOfZ0UF6O1ds08dy238V-65" target="MOfZ0UF6O1ds08dy238V-56">
          <mxGeometry relative="1" as="geometry" />
        </mxCell>
        <mxCell id="MOfZ0UF6O1ds08dy238V-65" value="Message" style="html=1;whiteSpace=wrap;labelBackgroundColor=none;fillColor=#e1d5e7;strokeColor=#9673a6;" vertex="1" parent="1">
          <mxGeometry x="550" y="759.5" width="60" height="30" as="geometry" />
        </mxCell>
        <mxCell id="MOfZ0UF6O1ds08dy238V-67" style="edgeStyle=orthogonalEdgeStyle;rounded=0;orthogonalLoop=1;jettySize=auto;html=1;exitX=0;exitY=0;exitDx=0;exitDy=30.5;exitPerimeter=0;" edge="1" parent="1" source="MOfZ0UF6O1ds08dy238V-9" target="MOfZ0UF6O1ds08dy238V-65">
          <mxGeometry relative="1" as="geometry" />
        </mxCell>
        <mxCell id="MOfZ0UF6O1ds08dy238V-69" style="edgeStyle=orthogonalEdgeStyle;rounded=0;orthogonalLoop=1;jettySize=auto;html=1;entryX=0.5;entryY=1;entryDx=0;entryDy=0;entryPerimeter=0;" edge="1" parent="1" source="MOfZ0UF6O1ds08dy238V-65" target="MOfZ0UF6O1ds08dy238V-9">
          <mxGeometry relative="1" as="geometry" />
        </mxCell>
        <mxCell id="MOfZ0UF6O1ds08dy238V-82" style="edgeStyle=orthogonalEdgeStyle;rounded=0;orthogonalLoop=1;jettySize=auto;html=1;exitX=1;exitY=0.75;exitDx=0;exitDy=0;entryX=0;entryY=0.5;entryDx=0;entryDy=0;" edge="1" parent="1" source="MOfZ0UF6O1ds08dy238V-74" target="MOfZ0UF6O1ds08dy238V-80">
          <mxGeometry relative="1" as="geometry" />
        </mxCell>
        <mxCell id="MOfZ0UF6O1ds08dy238V-74" value="Native side object" style="html=1;whiteSpace=wrap;fillColor=#1ba1e2;fontColor=#ffffff;strokeColor=#006EAF;" vertex="1" parent="1">
          <mxGeometry x="170" y="1005" width="110" height="50" as="geometry" />
        </mxCell>
        <mxCell id="MOfZ0UF6O1ds08dy238V-81" style="edgeStyle=orthogonalEdgeStyle;rounded=0;orthogonalLoop=1;jettySize=auto;html=1;" edge="1" parent="1" source="MOfZ0UF6O1ds08dy238V-80" target="MOfZ0UF6O1ds08dy238V-59">
          <mxGeometry relative="1" as="geometry" />
        </mxCell>
        <mxCell id="MOfZ0UF6O1ds08dy238V-80" value="Message" style="html=1;whiteSpace=wrap;labelBackgroundColor=none;fillColor=#e1d5e7;strokeColor=#9673a6;" vertex="1" parent="1">
          <mxGeometry x="350" y="1038" width="60" height="30" as="geometry" />
        </mxCell>
        <mxCell id="MOfZ0UF6O1ds08dy238V-83" style="edgeStyle=orthogonalEdgeStyle;rounded=0;orthogonalLoop=1;jettySize=auto;html=1;exitX=0.25;exitY=0;exitDx=0;exitDy=0;entryX=0.25;entryY=1;entryDx=0;entryDy=0;" edge="1" parent="1" source="MOfZ0UF6O1ds08dy238V-59" target="MOfZ0UF6O1ds08dy238V-56">
          <mxGeometry relative="1" as="geometry" />
        </mxCell>
        <mxCell id="MOfZ0UF6O1ds08dy238V-84" style="edgeStyle=orthogonalEdgeStyle;rounded=0;orthogonalLoop=1;jettySize=auto;html=1;exitX=0;exitY=0.25;exitDx=0;exitDy=0;entryX=1;entryY=0.5;entryDx=0;entryDy=0;" edge="1" parent="1" source="MOfZ0UF6O1ds08dy238V-58" target="MOfZ0UF6O1ds08dy238V-61">
          <mxGeometry relative="1" as="geometry" />
        </mxCell>
        <mxCell id="MOfZ0UF6O1ds08dy238V-89" style="edgeStyle=orthogonalEdgeStyle;rounded=0;orthogonalLoop=1;jettySize=auto;html=1;exitX=0.75;exitY=1;exitDx=0;exitDy=0;entryX=0.75;entryY=0;entryDx=0;entryDy=0;" edge="1" parent="1" source="MOfZ0UF6O1ds08dy238V-7" target="MOfZ0UF6O1ds08dy238V-18">
          <mxGeometry relative="1" as="geometry" />
        </mxCell>
        <mxCell id="MOfZ0UF6O1ds08dy238V-96" style="edgeStyle=orthogonalEdgeStyle;rounded=0;orthogonalLoop=1;jettySize=auto;html=1;entryX=0.5;entryY=0;entryDx=0;entryDy=0;" edge="1" parent="1" source="MOfZ0UF6O1ds08dy238V-93" target="MOfZ0UF6O1ds08dy238V-95">
          <mxGeometry relative="1" as="geometry" />
        </mxCell>
        <mxCell id="MOfZ0UF6O1ds08dy238V-93" value="Messenger" style="html=1;whiteSpace=wrap;labelBackgroundColor=none;fillColor=#d5e8d4;strokeColor=#82b366;verticalAlign=middle;horizontal=1;align=center;" vertex="1" parent="1">
          <mxGeometry x="347" y="340" width="70" height="40" as="geometry" />
        </mxCell>
        <mxCell id="MOfZ0UF6O1ds08dy238V-95" value="Game side object" style="html=1;whiteSpace=wrap;fillColor=#1ba1e2;fontColor=#ffffff;strokeColor=#006EAF;" vertex="1" parent="1">
          <mxGeometry x="170" y="440" width="110" height="50" as="geometry" />
        </mxCell>
        <mxCell id="MOfZ0UF6O1ds08dy238V-97" value="Message" style="html=1;whiteSpace=wrap;labelBackgroundColor=none;fillColor=#e1d5e7;strokeColor=#9673a6;" vertex="1" parent="1">
          <mxGeometry x="195" y="345" width="60" height="30" as="geometry" />
        </mxCell>
      </root>
    </mxGraphModel>
  </diagram>
</mxfile>
